<?xml version="1.0" standalone="no"?>
<!DOCTYPE svg PUBLIC "-//W3C//DTD SVG 20010904//EN"
 "http://www.w3.org/TR/2001/REC-SVG-20010904/DTD/svg10.dtd">
<svg version="1.0" xmlns="http://www.w3.org/2000/svg"
 width="60.000000pt" height="60.000000pt" viewBox="0 0 60.000000 60.000000"
 preserveAspectRatio="xMidYMid meet">

<g transform="translate(0.000000,60.000000) scale(0.100000,-0.100000)"
fill="#000000" stroke="none">
<path d="M26 579 c-31 -25 -34 -61 -6 -89 29 -29 74 -26 99 6 27 34 26 50 -4
79 -30 30 -54 31 -89 4z"/>
<path d="M10 210 l0 -210 60 0 60 0 -2 208 -3 207 -57 3 -58 3 0 -211z"/>
<path d="M210 210 l0 -210 55 0 55 0 0 103 c0 136 11 174 56 193 30 13 38 13
63 0 16 -9 31 -23 35 -31 3 -9 6 -73 6 -141 l0 -124 61 0 61 0 -4 163 c-3 149
-5 165 -25 193 -49 69 -153 79 -219 22 l-34 -30 0 36 0 36 -55 0 -55 0 0 -210z"/>
</g>
</svg>
