<?xml version="1.0" standalone="no"?>
<!DOCTYPE svg PUBLIC "-//W3C//DTD SVG 20010904//EN"
 "http://www.w3.org/TR/2001/REC-SVG-20010904/DTD/svg10.dtd">
<svg version="1.0" xmlns="http://www.w3.org/2000/svg"
 width="60.000000pt" height="62.000000pt" viewBox="0 0 60.000000 62.000000"
 preserveAspectRatio="xMidYMid meet">

<g transform="translate(0.000000,62.000000) scale(0.100000,-0.100000)"
fill="#000000" stroke="none">
<path d="M63 589 c-49 -18 -54 -90 -8 -111 49 -22 106 22 90 71 -9 29 -54 51
-82 40z"/>
<path d="M30 225 l0 -195 55 0 55 0 0 195 0 195 -55 0 -55 0 0 -195z"/>
<path d="M210 225 l0 -195 55 0 55 0 0 120 c0 107 2 122 20 140 12 12 33 20
54 20 56 0 66 -24 66 -162 l0 -118 55 0 55 0 0 140 c0 160 -10 198 -62 230
-42 27 -116 23 -159 -9 l-29 -22 0 26 c0 24 -3 25 -55 25 l-55 0 0 -195z"/>
</g>
</svg>
