<?xml version="1.0" standalone="no"?>
<!DOCTYPE svg PUBLIC "-//W3C//DTD SVG 20010904//EN"
 "http://www.w3.org/TR/2001/REC-SVG-20010904/DTD/svg10.dtd">
<svg version="1.0" xmlns="http://www.w3.org/2000/svg"
 width="60.000000pt" height="62.000000pt" viewBox="0 0 60.000000 62.000000"
 preserveAspectRatio="xMidYMid meet">

<g transform="translate(0.000000,62.000000) scale(0.100000,-0.100000)"
fill="#000000" stroke="none">
<path d="M0 310 l0 -310 300 0 300 0 0 310 0 310 -300 0 -300 0 0 -310z m145
239 c16 -49 -41 -93 -90 -71 -46 21 -41 93 8 111 28 11 73 -11 82 -40z m-5
-324 l0 -195 -55 0 -55 0 0 195 0 195 55 0 55 0 0 -195z m180 170 l0 -26 29
22 c43 32 117 36 159 9 52 -32 62 -70 62 -230 l0 -140 -55 0 -55 0 0 118 c0
138 -10 162 -66 162 -21 0 -42 -8 -54 -20 -18 -18 -20 -33 -20 -140 l0 -120
-55 0 -55 0 0 195 0 195 55 0 c52 0 55 -1 55 -25z"/>
</g>
</svg>
