<?xml version="1.0" encoding="UTF-8" standalone="no"?>
<svg
   xmlns:dc="http://purl.org/dc/elements/1.1/"
   xmlns:cc="http://creativecommons.org/ns#"
   xmlns:rdf="http://www.w3.org/1999/02/22-rdf-syntax-ns#"
   xmlns:svg="http://www.w3.org/2000/svg"
   xmlns="http://www.w3.org/2000/svg"
   xmlns:sodipodi="http://sodipodi.sourceforge.net/DTD/sodipodi-0.dtd"
   xmlns:inkscape="http://www.inkscape.org/namespaces/inkscape"
   height="48pt"
   viewBox="0 -1 48.015731 48"
   width="48pt"
   version="1.1"
   id="svg4"
   sodipodi:docname="paypal.svg"
   inkscape:version="0.92.4 (5da689c313, 2019-01-14)">
  <metadata
     id="metadata10">
    <rdf:RDF>
      <cc:Work
         rdf:about="">
        <dc:format>image/svg+xml</dc:format>
        <dc:type
           rdf:resource="http://purl.org/dc/dcmitype/StillImage" />
        <dc:title></dc:title>
      </cc:Work>
    </rdf:RDF>
  </metadata>
  <defs
     id="defs8" />
  <sodipodi:namedview
     pagecolor="#ffffff"
     bordercolor="#666666"
     borderopacity="1"
     objecttolerance="10"
     gridtolerance="10"
     guidetolerance="10"
     inkscape:pageopacity="0"
     inkscape:pageshadow="2"
     inkscape:window-width="1920"
     inkscape:window-height="955"
     id="namedview6"
     showgrid="false"
     showguides="true"
     inkscape:guide-bbox="true"
     inkscape:zoom="3.6589147"
     inkscape:cx="-67.927534"
     inkscape:cy="-1.2786512"
     inkscape:window-x="0"
     inkscape:window-y="40"
     inkscape:window-maximized="1"
     inkscape:current-layer="svg4"
     inkscape:snap-nodes="true"
     inkscape:snap-bbox="true"
     inkscape:snap-bbox-edge-midpoints="false"
     inkscape:bbox-nodes="true" />
  <path
     d="M 36.66776,7.24366 C 34.434221,2.266937 29.491861,-1.001229 24.003471,-1.001229 H 6.6153301 L 0,39.01187 H 10.94771 L 9.6260001,47.014502 H 24.564041 L 26.54854,35.010564 h 7.56592 c 6.825599,0 12.58967,-4.921529 13.705949,-11.703538 0.64196,-3.871379 -0.31056,-7.716876 -2.67976,-10.82679 C 43.047619,9.734227 40.007399,7.874726 36.66776,7.24366 Z M 11.60615,35.010564 H 4.6855802 L 9.9772598,3.000089 H 24.003471 c 4.216099,0 7.985488,2.697171 9.37891,6.71216 0.545541,1.575712 0.688471,3.279386 0.41182,4.93472 -0.797001,4.843865 -4.914739,8.359667 -9.79073,8.359667 H 13.59065 Z m 32.3,-12.363909 v 0.003 c -0.797959,4.843865 -4.91474,8.359667 -9.79169,8.359667 H 23.18613 l -1.98451,12.003884 h -6.89149 l 2.64342,-16.005235 h 7.049921 c 0.548941,0 1.086729,-0.04288 1.619681,-0.105024 5.632768,-0.655002 10.289278,-4.674387 11.775719,-10.196217 0.124025,-0.458176 0.231107,-0.924128 0.309587,-1.402311 9.7e-4,-0.007 9.7e-4,-0.01537 0.002,-0.02176 0.09349,-0.560256 0.151172,-1.12439 0.174883,-1.690976 9.7e-4,-0.01473 0.0029,-0.0288 0.0029,-0.04416 0.02194,-0.561216 0.0082,-1.122438 -0.03679,-1.680236 -0.002,-0.02752 -0.002,-0.0544 -0.005,-0.08109 -0.002,-0.01792 -0.002,-0.03584 -0.0029,-0.05504 1.62017,0.665261 3.062028,1.759859 4.148269,3.185133 1.69284,2.221913 2.372589,4.966464 1.914251,7.730553 z m 0,0"
     id="path2"
     inkscape:connector-curvature="0"
     style="stroke-width:0.1245351" />
</svg>
